<mxfile host="app.diagrams.net" agent="Mozilla/5.0 (Macintosh; Intel Mac OS X 10_15_7) AppleWebKit/537.36 (KHTML, like Gecko) Chrome/128.0.0.0 Safari/537.36" version="24.7.7">
  <diagram name="Page-1" id="7cZmbkx9ndBWZgbbE8Vg">
    <mxGraphModel dx="1434" dy="703" grid="1" gridSize="10" guides="1" tooltips="1" connect="1" arrows="1" fold="1" page="1" pageScale="1" pageWidth="850" pageHeight="1100" math="0" shadow="0">
      <root>
        <mxCell id="0" />
        <mxCell id="1" parent="0" />
        <mxCell id="CM2rm2-gQOkI-SST5DXU-2" value="" style="rounded=0;whiteSpace=wrap;html=1;fillColor=#e1d5e7;strokeColor=#9673a6;" vertex="1" parent="1">
          <mxGeometry x="630" y="30" width="860" height="610" as="geometry" />
        </mxCell>
        <mxCell id="CM2rm2-gQOkI-SST5DXU-3" value="" style="rounded=0;whiteSpace=wrap;html=1;" vertex="1" parent="1">
          <mxGeometry x="20" y="30" width="610" height="610" as="geometry" />
        </mxCell>
        <mxCell id="CM2rm2-gQOkI-SST5DXU-4" value="" style="whiteSpace=wrap;html=1;rounded=1;fillColor=#f5f5f5;fontColor=#333333;strokeColor=#666666;" vertex="1" parent="1">
          <mxGeometry x="30" y="370" width="590" height="220" as="geometry" />
        </mxCell>
        <mxCell id="CM2rm2-gQOkI-SST5DXU-5" style="rounded=0;orthogonalLoop=1;jettySize=auto;html=1;" edge="1" parent="1" source="CM2rm2-gQOkI-SST5DXU-9" target="CM2rm2-gQOkI-SST5DXU-11">
          <mxGeometry relative="1" as="geometry" />
        </mxCell>
        <mxCell id="CM2rm2-gQOkI-SST5DXU-6" value="前后端请求" style="edgeLabel;html=1;align=center;verticalAlign=middle;resizable=0;points=[];" vertex="1" connectable="0" parent="CM2rm2-gQOkI-SST5DXU-5">
          <mxGeometry x="-0.0328" y="1" relative="1" as="geometry">
            <mxPoint as="offset" />
          </mxGeometry>
        </mxCell>
        <mxCell id="CM2rm2-gQOkI-SST5DXU-7" style="rounded=0;orthogonalLoop=1;jettySize=auto;html=1;" edge="1" parent="1" source="CM2rm2-gQOkI-SST5DXU-9">
          <mxGeometry relative="1" as="geometry">
            <mxPoint x="485.36016205436977" y="228.3395813655486" as="targetPoint" />
          </mxGeometry>
        </mxCell>
        <mxCell id="CM2rm2-gQOkI-SST5DXU-8" value="前后端请求" style="edgeLabel;html=1;align=center;verticalAlign=middle;resizable=0;points=[];" vertex="1" connectable="0" parent="CM2rm2-gQOkI-SST5DXU-7">
          <mxGeometry x="-0.346" relative="1" as="geometry">
            <mxPoint x="15" y="16" as="offset" />
          </mxGeometry>
        </mxCell>
        <mxCell id="CM2rm2-gQOkI-SST5DXU-9" value="" style="verticalLabelPosition=bottom;html=1;verticalAlign=top;align=center;strokeColor=none;fillColor=#00BEF2;shape=mxgraph.azure.mobile;pointerEvents=1;" vertex="1" parent="1">
          <mxGeometry x="320" y="61" width="50" height="70" as="geometry" />
        </mxCell>
        <mxCell id="CM2rm2-gQOkI-SST5DXU-10" value="" style="edgeStyle=orthogonalEdgeStyle;rounded=0;orthogonalLoop=1;jettySize=auto;html=1;entryX=0.5;entryY=0;entryDx=0;entryDy=0;entryPerimeter=0;" edge="1" parent="1" source="CM2rm2-gQOkI-SST5DXU-11" target="CM2rm2-gQOkI-SST5DXU-14">
          <mxGeometry relative="1" as="geometry" />
        </mxCell>
        <UserObject label="&lt;span style=&quot;font-family: Helvetica; font-size: 12px; font-style: normal; font-variant-ligatures: normal; font-variant-caps: normal; letter-spacing: normal; orphans: 2; text-align: center; text-indent: 0px; text-transform: none; widows: 2; word-spacing: 0px; -webkit-text-stroke-width: 0px; white-space: normal; background-color: rgb(251, 251, 251); text-decoration-thickness: initial; text-decoration-style: initial; text-decoration-color: initial; float: none; display: inline !important;&quot;&gt;&lt;b style=&quot;&quot;&gt;&lt;font color=&quot;#ff3333&quot;&gt;mweb.digitalvolvo.com/mweb&lt;/font&gt;&lt;/b&gt;&lt;/span&gt;" link="&lt;span style=&quot;color: rgb(0, 0, 0); font-family: Helvetica; font-size: 12px; font-style: normal; font-variant-ligatures: normal; font-variant-caps: normal; font-weight: 400; letter-spacing: normal; orphans: 2; text-align: center; text-indent: 0px; text-transform: none; widows: 2; word-spacing: 0px; -webkit-text-stroke-width: 0px; white-space: normal; background-color: rgb(251, 251, 251); text-decoration-thickness: initial; text-decoration-style: initial; text-decoration-color: initial; display: inline !important; float: none;&quot;&gt;mweb.digitalvolvo.com&lt;/span&gt;" id="CM2rm2-gQOkI-SST5DXU-11">
          <mxCell style="rounded=1;whiteSpace=wrap;html=1;fillColor=#f5f5f5;fontColor=#0000EE;strokeColor=#666666;fontStyle=4;" vertex="1" parent="1">
            <mxGeometry x="95" y="221" width="190" height="60" as="geometry" />
          </mxCell>
        </UserObject>
        <mxCell id="CM2rm2-gQOkI-SST5DXU-12" value="" style="rounded=0;orthogonalLoop=1;jettySize=auto;html=1;" edge="1" parent="1" source="CM2rm2-gQOkI-SST5DXU-14" target="CM2rm2-gQOkI-SST5DXU-15">
          <mxGeometry relative="1" as="geometry" />
        </mxCell>
        <mxCell id="CM2rm2-gQOkI-SST5DXU-13" value="" style="rounded=0;orthogonalLoop=1;jettySize=auto;html=1;" edge="1" parent="1" source="CM2rm2-gQOkI-SST5DXU-14" target="CM2rm2-gQOkI-SST5DXU-16">
          <mxGeometry relative="1" as="geometry" />
        </mxCell>
        <mxCell id="CM2rm2-gQOkI-SST5DXU-14" value="" style="aspect=fixed;sketch=0;html=1;dashed=0;whitespace=wrap;fillColor=#2875E2;strokeColor=#ffffff;points=[[0.005,0.63,0],[0.1,0.2,0],[0.9,0.2,0],[0.5,0,0],[0.995,0.63,0],[0.72,0.99,0],[0.5,1,0],[0.28,0.99,0]];shape=mxgraph.kubernetes.icon2;kubernetesLabel=1;prIcon=pod" vertex="1" parent="1">
          <mxGeometry x="165" y="450" width="50" height="48" as="geometry" />
        </mxCell>
        <mxCell id="CM2rm2-gQOkI-SST5DXU-15" value="" style="aspect=fixed;sketch=0;html=1;dashed=0;whitespace=wrap;fillColor=#2875E2;strokeColor=#ffffff;points=[[0.005,0.63,0],[0.1,0.2,0],[0.9,0.2,0],[0.5,0,0],[0.995,0.63,0],[0.72,0.99,0],[0.5,1,0],[0.28,0.99,0]];shape=mxgraph.kubernetes.icon2;kubernetesLabel=1;prIcon=pod" vertex="1" parent="1">
          <mxGeometry x="345" y="410" width="50" height="48" as="geometry" />
        </mxCell>
        <mxCell id="CM2rm2-gQOkI-SST5DXU-16" value="" style="aspect=fixed;sketch=0;html=1;dashed=0;whitespace=wrap;fillColor=#2875E2;strokeColor=#ffffff;points=[[0.005,0.63,0],[0.1,0.2,0],[0.9,0.2,0],[0.5,0,0],[0.995,0.63,0],[0.72,0.99,0],[0.5,1,0],[0.28,0.99,0]];shape=mxgraph.kubernetes.icon2;kubernetesLabel=1;prIcon=pod" vertex="1" parent="1">
          <mxGeometry x="345" y="512" width="50" height="48" as="geometry" />
        </mxCell>
        <mxCell id="CM2rm2-gQOkI-SST5DXU-17" value="前端项目" style="html=1;verticalLabelPosition=bottom;align=center;labelBackgroundColor=#ffffff;verticalAlign=top;strokeWidth=2;strokeColor=#0080F0;shadow=0;dashed=0;shape=mxgraph.ios7.icons.documents;" vertex="1" parent="1">
          <mxGeometry x="178.75" y="530" width="22.5" height="30" as="geometry" />
        </mxCell>
        <mxCell id="CM2rm2-gQOkI-SST5DXU-18" style="edgeStyle=orthogonalEdgeStyle;rounded=0;orthogonalLoop=1;jettySize=auto;html=1;entryX=0.5;entryY=0.233;entryDx=0;entryDy=0;entryPerimeter=0;" edge="1" parent="1" source="CM2rm2-gQOkI-SST5DXU-14" target="CM2rm2-gQOkI-SST5DXU-17">
          <mxGeometry relative="1" as="geometry" />
        </mxCell>
        <mxCell id="CM2rm2-gQOkI-SST5DXU-19" value="&lt;b style=&quot;background-color: rgb(255, 153, 51);&quot;&gt;Nginx&lt;/b&gt;" style="text;html=1;align=center;verticalAlign=middle;whiteSpace=wrap;rounded=0;" vertex="1" parent="1">
          <mxGeometry x="190" y="429" width="60" height="30" as="geometry" />
        </mxCell>
        <mxCell id="CM2rm2-gQOkI-SST5DXU-20" value="&lt;b&gt;app-bff&lt;/b&gt;" style="text;html=1;align=center;verticalAlign=middle;whiteSpace=wrap;rounded=0;" vertex="1" parent="1">
          <mxGeometry x="335" y="458" width="60" height="30" as="geometry" />
        </mxCell>
        <mxCell id="CM2rm2-gQOkI-SST5DXU-21" value="&lt;b&gt;mweb-bff&lt;/b&gt;" style="text;html=1;align=center;verticalAlign=middle;whiteSpace=wrap;rounded=0;" vertex="1" parent="1">
          <mxGeometry x="340" y="550" width="60" height="30" as="geometry" />
        </mxCell>
        <mxCell id="CM2rm2-gQOkI-SST5DXU-22" value="&lt;b&gt;CCE TOC&lt;/b&gt;" style="text;html=1;align=center;verticalAlign=middle;whiteSpace=wrap;rounded=0;fillColor=#60a917;strokeColor=#2D7600;fontColor=#ffffff;" vertex="1" parent="1">
          <mxGeometry x="30" y="370" width="80" height="30" as="geometry" />
        </mxCell>
        <mxCell id="CM2rm2-gQOkI-SST5DXU-23" value="&lt;b&gt;APIG&lt;/b&gt;" style="text;html=1;align=center;verticalAlign=middle;whiteSpace=wrap;rounded=1;fillColor=#60a917;strokeColor=#2D7600;fontColor=#ffffff;" vertex="1" parent="1">
          <mxGeometry x="93" y="220.5" width="60" height="20" as="geometry" />
        </mxCell>
        <mxCell id="CM2rm2-gQOkI-SST5DXU-24" style="rounded=0;orthogonalLoop=1;jettySize=auto;html=1;" edge="1" parent="1" source="CM2rm2-gQOkI-SST5DXU-28" target="CM2rm2-gQOkI-SST5DXU-37">
          <mxGeometry relative="1" as="geometry" />
        </mxCell>
        <mxCell id="CM2rm2-gQOkI-SST5DXU-25" value="前端请求" style="edgeLabel;html=1;align=center;verticalAlign=middle;resizable=0;points=[];" vertex="1" connectable="0" parent="CM2rm2-gQOkI-SST5DXU-24">
          <mxGeometry x="0.1208" y="2" relative="1" as="geometry">
            <mxPoint as="offset" />
          </mxGeometry>
        </mxCell>
        <mxCell id="CM2rm2-gQOkI-SST5DXU-28" value="" style="verticalLabelPosition=bottom;html=1;verticalAlign=top;align=center;strokeColor=none;fillColor=#00BEF2;shape=mxgraph.azure.mobile;pointerEvents=1;" vertex="1" parent="1">
          <mxGeometry x="1060" y="61.5" width="50" height="70" as="geometry" />
        </mxCell>
        <mxCell id="CM2rm2-gQOkI-SST5DXU-37" value="CDN" style="ellipse;shape=cloud;whiteSpace=wrap;html=1;fillColor=#d5e8d4;strokeColor=#82b366;" vertex="1" parent="1">
          <mxGeometry x="810" y="167.5" width="120" height="80" as="geometry" />
        </mxCell>
        <mxCell id="CM2rm2-gQOkI-SST5DXU-40" value="" style="whiteSpace=wrap;html=1;rounded=1;fillColor=#f5f5f5;fontColor=#333333;strokeColor=#666666;" vertex="1" parent="1">
          <mxGeometry x="810" y="382" width="285" height="160" as="geometry" />
        </mxCell>
        <mxCell id="CM2rm2-gQOkI-SST5DXU-41" value="" style="rounded=0;orthogonalLoop=1;jettySize=auto;html=1;" edge="1" parent="1" source="CM2rm2-gQOkI-SST5DXU-43" target="CM2rm2-gQOkI-SST5DXU-45">
          <mxGeometry relative="1" as="geometry" />
        </mxCell>
        <mxCell id="CM2rm2-gQOkI-SST5DXU-43" value="" style="aspect=fixed;sketch=0;html=1;dashed=0;whitespace=wrap;fillColor=#2875E2;strokeColor=#ffffff;points=[[0.005,0.63,0],[0.1,0.2,0],[0.9,0.2,0],[0.5,0,0],[0.995,0.63,0],[0.72,0.99,0],[0.5,1,0],[0.28,0.99,0]];shape=mxgraph.kubernetes.icon2;kubernetesLabel=1;prIcon=pod" vertex="1" parent="1">
          <mxGeometry x="920" y="396" width="50" height="48" as="geometry" />
        </mxCell>
        <mxCell id="CM2rm2-gQOkI-SST5DXU-44" value="&lt;b&gt;CCE 前端&lt;/b&gt;" style="text;html=1;align=center;verticalAlign=middle;whiteSpace=wrap;rounded=0;fillColor=#60a917;strokeColor=#2D7600;fontColor=#ffffff;" vertex="1" parent="1">
          <mxGeometry x="820" y="385" width="85" height="30" as="geometry" />
        </mxCell>
        <mxCell id="CM2rm2-gQOkI-SST5DXU-45" value="前端项目" style="html=1;verticalLabelPosition=bottom;align=center;labelBackgroundColor=#ffffff;verticalAlign=top;strokeWidth=2;strokeColor=#0080F0;shadow=0;dashed=0;shape=mxgraph.ios7.icons.documents;" vertex="1" parent="1">
          <mxGeometry x="933.75" y="466" width="22.5" height="30" as="geometry" />
        </mxCell>
        <UserObject label="&lt;span style=&quot;font-family: Helvetica; font-size: 12px; font-style: normal; font-variant-ligatures: normal; font-variant-caps: normal; letter-spacing: normal; orphans: 2; text-align: center; text-indent: 0px; text-transform: none; widows: 2; word-spacing: 0px; -webkit-text-stroke-width: 0px; white-space: normal; background-color: rgb(251, 251, 251); text-decoration-thickness: initial; text-decoration-style: initial; text-decoration-color: initial; float: none; display: inline !important;&quot;&gt;&lt;b style=&quot;&quot;&gt;&lt;font color=&quot;#ff3333&quot;&gt;mes.digitalvolvo.com/in-car&lt;/font&gt;&lt;/b&gt;&lt;/span&gt;" link="&lt;span style=&quot;color: rgb(0, 0, 0); font-family: Helvetica; font-size: 12px; font-style: normal; font-variant-ligatures: normal; font-variant-caps: normal; font-weight: 400; letter-spacing: normal; orphans: 2; text-align: center; text-indent: 0px; text-transform: none; widows: 2; word-spacing: 0px; -webkit-text-stroke-width: 0px; white-space: normal; background-color: rgb(251, 251, 251); text-decoration-thickness: initial; text-decoration-style: initial; text-decoration-color: initial; display: inline !important; float: none;&quot;&gt;mweb.digitalvolvo.com&lt;/span&gt;" id="CM2rm2-gQOkI-SST5DXU-48">
          <mxCell style="rounded=1;whiteSpace=wrap;html=1;fillColor=#f5f5f5;fontColor=#0000EE;strokeColor=#666666;fontStyle=4;" vertex="1" parent="1">
            <mxGeometry x="1220" y="300" width="190" height="50" as="geometry" />
          </mxCell>
        </UserObject>
        <mxCell id="CM2rm2-gQOkI-SST5DXU-49" value="" style="whiteSpace=wrap;html=1;rounded=1;fillColor=#f5f5f5;fontColor=#333333;strokeColor=#666666;" vertex="1" parent="1">
          <mxGeometry x="1180" y="385" width="285" height="160" as="geometry" />
        </mxCell>
        <mxCell id="CM2rm2-gQOkI-SST5DXU-50" value="&lt;b&gt;CCE TO-C&lt;/b&gt;" style="text;html=1;align=center;verticalAlign=middle;whiteSpace=wrap;rounded=0;fillColor=#60a917;strokeColor=#2D7600;fontColor=#ffffff;" vertex="1" parent="1">
          <mxGeometry x="1180" y="385" width="90" height="24" as="geometry" />
        </mxCell>
        <mxCell id="CM2rm2-gQOkI-SST5DXU-51" value="" style="aspect=fixed;sketch=0;html=1;dashed=0;whitespace=wrap;fillColor=#2875E2;strokeColor=#ffffff;points=[[0.005,0.63,0],[0.1,0.2,0],[0.9,0.2,0],[0.5,0,0],[0.995,0.63,0],[0.72,0.99,0],[0.5,1,0],[0.28,0.99,0]];shape=mxgraph.kubernetes.icon2;kubernetesLabel=1;prIcon=pod" vertex="1" parent="1">
          <mxGeometry x="1290" y="448" width="50" height="48" as="geometry" />
        </mxCell>
        <mxCell id="CM2rm2-gQOkI-SST5DXU-54" value="&lt;b&gt;mweb-v216&lt;/b&gt;" style="text;html=1;align=center;verticalAlign=middle;whiteSpace=wrap;rounded=0;" vertex="1" parent="1">
          <mxGeometry x="1285" y="496" width="60" height="30" as="geometry" />
        </mxCell>
        <mxCell id="CM2rm2-gQOkI-SST5DXU-55" style="rounded=0;orthogonalLoop=1;jettySize=auto;html=1;entryX=0.5;entryY=0;entryDx=0;entryDy=0;entryPerimeter=0;" edge="1" parent="1" source="CM2rm2-gQOkI-SST5DXU-48" target="CM2rm2-gQOkI-SST5DXU-51">
          <mxGeometry relative="1" as="geometry" />
        </mxCell>
        <mxCell id="CM2rm2-gQOkI-SST5DXU-57" value="&lt;b&gt;APIG&lt;/b&gt;" style="text;html=1;align=center;verticalAlign=middle;whiteSpace=wrap;rounded=0;fillColor=#60a917;fontColor=#ffffff;strokeColor=#2D7600;" vertex="1" parent="1">
          <mxGeometry x="1220" y="298" width="60" height="20" as="geometry" />
        </mxCell>
        <mxCell id="CM2rm2-gQOkI-SST5DXU-58" value="&lt;h1 style=&quot;margin-top: 0px;&quot;&gt;改造前&lt;/h1&gt;" style="text;html=1;whiteSpace=wrap;overflow=hidden;rounded=0;" vertex="1" parent="1">
          <mxGeometry x="21.25" y="36.5" width="180" height="120" as="geometry" />
        </mxCell>
        <mxCell id="CM2rm2-gQOkI-SST5DXU-59" value="&lt;h1 style=&quot;margin-top: 0px;&quot;&gt;改造后&lt;/h1&gt;" style="text;html=1;whiteSpace=wrap;overflow=hidden;rounded=0;" vertex="1" parent="1">
          <mxGeometry x="640" y="36.5" width="180" height="120" as="geometry" />
        </mxCell>
        <mxCell id="CM2rm2-gQOkI-SST5DXU-74" style="edgeStyle=orthogonalEdgeStyle;rounded=0;orthogonalLoop=1;jettySize=auto;html=1;" edge="1" parent="1" source="CM2rm2-gQOkI-SST5DXU-68" target="CM2rm2-gQOkI-SST5DXU-40">
          <mxGeometry relative="1" as="geometry" />
        </mxCell>
        <UserObject label="mweb.digitalvolvo.com/mweb" id="CM2rm2-gQOkI-SST5DXU-68">
          <mxCell style="text;whiteSpace=wrap;fontColor=#FF3333;fontStyle=1" vertex="1" parent="1">
            <mxGeometry x="775" y="241" width="190" height="40" as="geometry" />
          </mxCell>
        </UserObject>
        <UserObject label="&lt;span style=&quot;font-family: Helvetica; font-size: 12px; font-style: normal; font-variant-ligatures: normal; font-variant-caps: normal; letter-spacing: normal; orphans: 2; text-align: center; text-indent: 0px; text-transform: none; widows: 2; word-spacing: 0px; -webkit-text-stroke-width: 0px; white-space: normal; background-color: rgb(251, 251, 251); text-decoration-thickness: initial; text-decoration-style: initial; text-decoration-color: initial; float: none; display: inline !important;&quot;&gt;&lt;b style=&quot;&quot;&gt;&lt;font color=&quot;#ff3333&quot;&gt;mweb.digitalvolvo.com/in-car&lt;/font&gt;&lt;/b&gt;&lt;/span&gt;" link="&lt;span style=&quot;color: rgb(0, 0, 0); font-family: Helvetica; font-size: 12px; font-style: normal; font-variant-ligatures: normal; font-variant-caps: normal; font-weight: 400; letter-spacing: normal; orphans: 2; text-align: center; text-indent: 0px; text-transform: none; widows: 2; word-spacing: 0px; -webkit-text-stroke-width: 0px; white-space: normal; background-color: rgb(251, 251, 251); text-decoration-thickness: initial; text-decoration-style: initial; text-decoration-color: initial; display: inline !important; float: none;&quot;&gt;mweb.digitalvolvo.com&lt;/span&gt;" id="CM2rm2-gQOkI-SST5DXU-69">
          <mxCell style="rounded=1;whiteSpace=wrap;html=1;fillColor=#f5f5f5;fontColor=#0000EE;strokeColor=#666666;fontStyle=4;" vertex="1" parent="1">
            <mxGeometry x="430" y="227" width="190" height="60" as="geometry" />
          </mxCell>
        </UserObject>
        <mxCell id="CM2rm2-gQOkI-SST5DXU-70" value="&lt;b&gt;APIG&lt;/b&gt;" style="text;html=1;align=center;verticalAlign=middle;whiteSpace=wrap;rounded=1;fillColor=#60a917;strokeColor=#2D7600;fontColor=#ffffff;" vertex="1" parent="1">
          <mxGeometry x="430" y="227.5" width="60" height="20" as="geometry" />
        </mxCell>
        <mxCell id="CM2rm2-gQOkI-SST5DXU-71" value="" style="aspect=fixed;sketch=0;html=1;dashed=0;whitespace=wrap;fillColor=#2875E2;strokeColor=#ffffff;points=[[0.005,0.63,0],[0.1,0.2,0],[0.9,0.2,0],[0.5,0,0],[0.995,0.63,0],[0.72,0.99,0],[0.5,1,0],[0.28,0.99,0]];shape=mxgraph.kubernetes.icon2;kubernetesLabel=1;prIcon=pod" vertex="1" parent="1">
          <mxGeometry x="500" y="459" width="50" height="48" as="geometry" />
        </mxCell>
        <mxCell id="CM2rm2-gQOkI-SST5DXU-72" value="&lt;b&gt;mweb-v216&lt;/b&gt;" style="text;html=1;align=center;verticalAlign=middle;whiteSpace=wrap;rounded=0;" vertex="1" parent="1">
          <mxGeometry x="495" y="512" width="65" height="30" as="geometry" />
        </mxCell>
        <mxCell id="CM2rm2-gQOkI-SST5DXU-73" style="edgeStyle=orthogonalEdgeStyle;rounded=0;orthogonalLoop=1;jettySize=auto;html=1;entryX=0.5;entryY=0;entryDx=0;entryDy=0;entryPerimeter=0;" edge="1" parent="1" source="CM2rm2-gQOkI-SST5DXU-69" target="CM2rm2-gQOkI-SST5DXU-71">
          <mxGeometry relative="1" as="geometry" />
        </mxCell>
        <mxCell id="CM2rm2-gQOkI-SST5DXU-75" value="CDN" style="ellipse;shape=cloud;whiteSpace=wrap;html=1;fillColor=#d5e8d4;strokeColor=#82b366;" vertex="1" parent="1">
          <mxGeometry x="1180" y="167.5" width="120" height="80" as="geometry" />
        </mxCell>
        <mxCell id="CM2rm2-gQOkI-SST5DXU-76" style="rounded=0;orthogonalLoop=1;jettySize=auto;html=1;entryX=0.4;entryY=0.1;entryDx=0;entryDy=0;entryPerimeter=0;" edge="1" parent="1" source="CM2rm2-gQOkI-SST5DXU-28" target="CM2rm2-gQOkI-SST5DXU-75">
          <mxGeometry relative="1" as="geometry" />
        </mxCell>
        <mxCell id="CM2rm2-gQOkI-SST5DXU-78" style="edgeStyle=orthogonalEdgeStyle;rounded=0;orthogonalLoop=1;jettySize=auto;html=1;entryX=0.5;entryY=0;entryDx=0;entryDy=0;" edge="1" parent="1" source="CM2rm2-gQOkI-SST5DXU-77" target="CM2rm2-gQOkI-SST5DXU-48">
          <mxGeometry relative="1" as="geometry" />
        </mxCell>
        <UserObject label="mweb.digitalvolvo.com/in-car" id="CM2rm2-gQOkI-SST5DXU-77">
          <mxCell style="text;whiteSpace=wrap;fontColor=#FF3333;fontStyle=1" vertex="1" parent="1">
            <mxGeometry x="1170" y="231" width="190" height="40" as="geometry" />
          </mxCell>
        </UserObject>
      </root>
    </mxGraphModel>
  </diagram>
</mxfile>
